<svg xmlns="http://www.w3.org/2000/svg" viewBox="0 0 64 64" width="64" height="64">
  <defs>
    <radialGradient id="flameGrad" cx="50%" cy="50%" r="50%">
      <stop offset="0%" stop-color="#ef4444"/>
      <stop offset="60%" stop-color="#991b1b"/>
      <stop offset="100%" stop-color="#450a0a"/>
    </radialGradient>
    <linearGradient id="goldGrad" x1="0%" y1="0%" x2="100%" y2="100%">
      <stop offset="0%" stop-color="#fef08a"/>
      <stop offset="50%" stop-color="#eab308"/>
      <stop offset="100%" stop-color="#ca8a04"/>
    </linearGradient>
  </defs>
  <path d="M32 4 L56 14 L56 36 C56 50 32 60 32 60 C32 60 8 50 8 36 L8 14 Z" fill="url(#flameGrad)" stroke="url(#goldGrad)" stroke-width="2.5"/>
  <path d="M32 8 L52 17 L52 35 C52 47 32 55 32 55 C32 55 12 47 12 35 L12 17 Z" fill="#0b0e14" opacity="0.9"/>
  <g stroke="url(#goldGrad)" stroke-width="2.2" stroke-linecap="round">
    <line x1="20" y1="20" x2="44" y2="44"/>
    <line x1="17" y1="25" x2="23" y2="19"/>
    <line x1="44" y1="20" x2="20" y2="44"/>
    <line x1="47" y1="25" x2="41" y2="19"/>
  </g>
  <circle cx="32" cy="32" r="5" fill="#f97316"/>
  <circle cx="32" cy="32" r="2.5" fill="#fef08a"/>
</svg>
